<mxfile host="Electron" agent="Mozilla/5.0 (X11; Linux x86_64) AppleWebKit/537.36 (KHTML, like Gecko) draw.io/26.1.1 Chrome/132.0.6834.210 Electron/34.3.3 Safari/537.36" version="26.1.1">
  <diagram name="Page-1" id="NJafILQEZMPZhQUg8aph">
    <mxGraphModel dx="2389" dy="907" grid="1" gridSize="10" guides="1" tooltips="1" connect="1" arrows="1" fold="1" page="1" pageScale="1" pageWidth="827" pageHeight="1169" math="0" shadow="0">
      <root>
        <mxCell id="0" />
        <mxCell id="1" parent="0" />
        <mxCell id="3gP7cIQIkid6_7ooMgnK-77" value="" style="rounded=1;whiteSpace=wrap;html=1;fillColor=#f8cecc;strokeColor=#b85450;gradientColor=#ea6b66;" parent="1" vertex="1">
          <mxGeometry x="827" y="440" width="223" height="300" as="geometry" />
        </mxCell>
        <mxCell id="3gP7cIQIkid6_7ooMgnK-76" value="" style="rounded=1;whiteSpace=wrap;html=1;fillColor=#f8cecc;strokeColor=#b85450;gradientColor=#ea6b66;" parent="1" vertex="1">
          <mxGeometry x="600" y="440" width="180" height="660" as="geometry" />
        </mxCell>
        <mxCell id="3gP7cIQIkid6_7ooMgnK-75" value="" style="rounded=1;whiteSpace=wrap;html=1;fillColor=#f8cecc;strokeColor=#b85450;gradientColor=#ea6b66;" parent="1" vertex="1">
          <mxGeometry x="360" y="440" width="200" height="320" as="geometry" />
        </mxCell>
        <mxCell id="3gP7cIQIkid6_7ooMgnK-74" value="" style="rounded=1;whiteSpace=wrap;html=1;fillColor=#dae8fc;gradientColor=#7ea6e0;strokeColor=#6c8ebf;" parent="1" vertex="1">
          <mxGeometry x="827" y="640" width="223" height="80" as="geometry" />
        </mxCell>
        <mxCell id="3gP7cIQIkid6_7ooMgnK-73" value="" style="rounded=1;whiteSpace=wrap;html=1;fillColor=#dae8fc;gradientColor=#7ea6e0;strokeColor=#6c8ebf;" parent="1" vertex="1">
          <mxGeometry x="600" y="640" width="180" height="450" as="geometry" />
        </mxCell>
        <mxCell id="3gP7cIQIkid6_7ooMgnK-72" value="" style="rounded=1;whiteSpace=wrap;html=1;fillColor=#dae8fc;strokeColor=#6c8ebf;gradientColor=#7ea6e0;" parent="1" vertex="1">
          <mxGeometry x="360" y="635" width="200" height="105" as="geometry" />
        </mxCell>
        <mxCell id="3gP7cIQIkid6_7ooMgnK-5" value="" style="rounded=1;whiteSpace=wrap;html=1;fillColor=#d5e8d4;strokeColor=#82b366;gradientColor=#97d077;" parent="1" vertex="1">
          <mxGeometry x="160" y="270" width="150" height="530" as="geometry" />
        </mxCell>
        <mxCell id="3gP7cIQIkid6_7ooMgnK-101" value="" style="edgeStyle=orthogonalEdgeStyle;rounded=0;orthogonalLoop=1;jettySize=auto;html=1;strokeColor=light-dark(#000000,#00FF80);endArrow=none;startFill=0;" parent="1" source="3gP7cIQIkid6_7ooMgnK-1" target="3gP7cIQIkid6_7ooMgnK-7" edge="1">
          <mxGeometry relative="1" as="geometry" />
        </mxCell>
        <mxCell id="3gP7cIQIkid6_7ooMgnK-102" value="" style="edgeStyle=orthogonalEdgeStyle;rounded=0;orthogonalLoop=1;jettySize=auto;html=1;endArrow=none;startFill=0;strokeColor=light-dark(#000000,#00FF80);endFill=1;" parent="1" source="3gP7cIQIkid6_7ooMgnK-1" edge="1">
          <mxGeometry relative="1" as="geometry">
            <mxPoint x="160" y="380" as="targetPoint" />
          </mxGeometry>
        </mxCell>
        <mxCell id="3gP7cIQIkid6_7ooMgnK-1" value="" style="fontColor=#0066CC;verticalAlign=top;verticalLabelPosition=bottom;labelPosition=center;align=center;html=1;outlineConnect=0;fillColor=#CCCCCC;strokeColor=#6881B3;gradientColor=none;gradientDirection=north;strokeWidth=2;shape=mxgraph.networks.modem;" parent="1" vertex="1">
          <mxGeometry y="360" width="130" height="40" as="geometry" />
        </mxCell>
        <mxCell id="3gP7cIQIkid6_7ooMgnK-3" value="" style="fontColor=#0066CC;verticalAlign=top;verticalLabelPosition=bottom;labelPosition=center;align=center;html=1;outlineConnect=0;fillColor=#CCCCCC;strokeColor=#6881B3;gradientColor=none;gradientDirection=north;strokeWidth=2;shape=mxgraph.networks.wireless_modem;" parent="1" vertex="1">
          <mxGeometry x="170" y="280" width="130" height="120" as="geometry" />
        </mxCell>
        <mxCell id="3gP7cIQIkid6_7ooMgnK-6" value="Modem(Bridge)" style="text;html=1;align=center;verticalAlign=middle;whiteSpace=wrap;rounded=0;" parent="1" vertex="1">
          <mxGeometry x="15" y="405" width="100" height="30" as="geometry" />
        </mxCell>
        <mxCell id="3gP7cIQIkid6_7ooMgnK-7" value="" style="outlineConnect=0;dashed=0;verticalLabelPosition=bottom;verticalAlign=top;align=center;html=1;shape=mxgraph.aws3.internet_3;fillColor=#D2D3D3;gradientColor=none;" parent="1" vertex="1">
          <mxGeometry x="-260" y="318" width="160" height="124" as="geometry" />
        </mxCell>
        <mxCell id="3gP7cIQIkid6_7ooMgnK-8" value="&lt;div&gt;Router (GL.iNet)&lt;/div&gt;&lt;div&gt;192.168.8.1&lt;/div&gt;" style="text;html=1;align=center;verticalAlign=middle;whiteSpace=wrap;rounded=0;" parent="1" vertex="1">
          <mxGeometry x="197.5" y="400" width="75" height="45" as="geometry" />
        </mxCell>
        <mxCell id="3gP7cIQIkid6_7ooMgnK-10" value="" style="shape=image;verticalLabelPosition=bottom;labelBackgroundColor=default;verticalAlign=top;aspect=fixed;imageAspect=0;image=https://images.icon-icons.com/2699/PNG/512/adguard_logo_icon_167906.png;" parent="1" vertex="1">
          <mxGeometry x="155" y="450" width="160" height="80" as="geometry" />
        </mxCell>
        <mxCell id="3gP7cIQIkid6_7ooMgnK-11" value="" style="image;html=1;image=img/lib/clip_art/networking/Firewall_02_128x128.png" parent="1" vertex="1">
          <mxGeometry x="170" y="515" width="130" height="140" as="geometry" />
        </mxCell>
        <mxCell id="3gP7cIQIkid6_7ooMgnK-14" value="" style="shape=image;verticalLabelPosition=bottom;labelBackgroundColor=default;verticalAlign=top;aspect=fixed;imageAspect=0;image=https://images.seeklogo.com/logo-png/48/2/wireguard-logo-png_seeklogo-481785.png;" parent="1" vertex="1">
          <mxGeometry x="160" y="655" width="150" height="150" as="geometry" />
        </mxCell>
        <mxCell id="3gP7cIQIkid6_7ooMgnK-15" value="&lt;div&gt;Internet&lt;/div&gt;" style="text;html=1;align=center;verticalAlign=middle;whiteSpace=wrap;rounded=0;" parent="1" vertex="1">
          <mxGeometry x="-210" y="442" width="60" height="30" as="geometry" />
        </mxCell>
        <mxCell id="3gP7cIQIkid6_7ooMgnK-16" style="edgeStyle=orthogonalEdgeStyle;rounded=0;orthogonalLoop=1;jettySize=auto;html=1;exitX=0.5;exitY=1;exitDx=0;exitDy=0;" parent="1" source="3gP7cIQIkid6_7ooMgnK-5" target="3gP7cIQIkid6_7ooMgnK-5" edge="1">
          <mxGeometry relative="1" as="geometry" />
        </mxCell>
        <mxCell id="3gP7cIQIkid6_7ooMgnK-18" value="" style="image;html=1;image=img/lib/clip_art/computers/Server_128x128.png" parent="1" vertex="1">
          <mxGeometry x="360" y="442" width="120" height="118" as="geometry" />
        </mxCell>
        <mxCell id="3gP7cIQIkid6_7ooMgnK-19" value="" style="shape=image;html=1;verticalAlign=top;verticalLabelPosition=bottom;labelBackgroundColor=#ffffff;imageAspect=0;aspect=fixed;image=https://cdn1.iconfinder.com/data/icons/Vista-Inspirate_1.0/128x128/apps/debian.png" parent="1" vertex="1">
          <mxGeometry x="360" y="560" width="60" height="60" as="geometry" />
        </mxCell>
        <mxCell id="3gP7cIQIkid6_7ooMgnK-20" value="" style="shape=image;html=1;verticalAlign=top;verticalLabelPosition=bottom;labelBackgroundColor=#ffffff;imageAspect=0;aspect=fixed;image=https://cdn1.iconfinder.com/data/icons/unicons-line-vol-3/24/docker-128.png" parent="1" vertex="1">
          <mxGeometry x="430" y="560" width="60" height="60" as="geometry" />
        </mxCell>
        <mxCell id="3gP7cIQIkid6_7ooMgnK-21" value="" style="shape=image;verticalLabelPosition=bottom;labelBackgroundColor=default;verticalAlign=top;aspect=fixed;imageAspect=0;image=https://static-00.iconduck.com/assets.00/portainer-icon-732x1024-dlqoqekr.png;" parent="1" vertex="1">
          <mxGeometry x="507.13" y="560" width="35.74" height="50" as="geometry" />
        </mxCell>
        <mxCell id="3gP7cIQIkid6_7ooMgnK-22" value="Raspberry Pi 5" style="text;html=1;align=center;verticalAlign=middle;whiteSpace=wrap;rounded=0;" parent="1" vertex="1">
          <mxGeometry x="480" y="475" width="90" height="30" as="geometry" />
        </mxCell>
        <mxCell id="3gP7cIQIkid6_7ooMgnK-23" value="" style="shape=image;verticalLabelPosition=bottom;labelBackgroundColor=default;verticalAlign=top;aspect=fixed;imageAspect=0;image=https://img.icons8.com/color/512/zigbee.png;" parent="1" vertex="1">
          <mxGeometry x="500" y="500" width="50" height="50" as="geometry" />
        </mxCell>
        <mxCell id="3gP7cIQIkid6_7ooMgnK-24" value="" style="shape=image;verticalLabelPosition=bottom;labelBackgroundColor=default;verticalAlign=top;aspect=fixed;imageAspect=0;image=https://upload.wikimedia.org/wikipedia/commons/thumb/6/6e/Home_Assistant_Logo.svg/2048px-Home_Assistant_Logo.svg.png;" parent="1" vertex="1">
          <mxGeometry x="360" y="640" width="96" height="96" as="geometry" />
        </mxCell>
        <mxCell id="3gP7cIQIkid6_7ooMgnK-25" value="" style="shape=image;verticalLabelPosition=bottom;labelBackgroundColor=default;verticalAlign=top;aspect=fixed;imageAspect=0;image=https://containrrr.dev/watchtower/images/logo-450px.png;" parent="1" vertex="1">
          <mxGeometry x="470" y="560" width="20" height="20" as="geometry" />
        </mxCell>
        <mxCell id="3gP7cIQIkid6_7ooMgnK-26" value="" style="shape=image;verticalLabelPosition=bottom;labelBackgroundColor=default;verticalAlign=top;aspect=fixed;imageAspect=0;image=https://nginxproxymanager.com/icon.png;" parent="1" vertex="1">
          <mxGeometry x="436" y="635" width="20" height="20" as="geometry" />
        </mxCell>
        <mxCell id="3gP7cIQIkid6_7ooMgnK-27" value="" style="shape=image;verticalLabelPosition=bottom;labelBackgroundColor=default;verticalAlign=top;aspect=fixed;imageAspect=0;image=https://upload.wikimedia.org/wikipedia/commons/9/94/Cloudflare_Logo.png;" parent="1" vertex="1">
          <mxGeometry x="414" y="635" width="20" height="20" as="geometry" />
        </mxCell>
        <mxCell id="3gP7cIQIkid6_7ooMgnK-28" value="" style="shape=image;verticalLabelPosition=bottom;labelBackgroundColor=default;verticalAlign=top;aspect=fixed;imageAspect=0;image=https://goauthentik.io/img/social.png;" parent="1" vertex="1">
          <mxGeometry x="456" y="663" width="100" height="50" as="geometry" />
        </mxCell>
        <mxCell id="3gP7cIQIkid6_7ooMgnK-29" value="" style="shape=image;verticalLabelPosition=bottom;labelBackgroundColor=default;verticalAlign=top;aspect=fixed;imageAspect=0;image=https://nginxproxymanager.com/icon.png;" parent="1" vertex="1">
          <mxGeometry x="536" y="635" width="20" height="20" as="geometry" />
        </mxCell>
        <mxCell id="3gP7cIQIkid6_7ooMgnK-30" value="" style="shape=image;verticalLabelPosition=bottom;labelBackgroundColor=default;verticalAlign=top;aspect=fixed;imageAspect=0;image=https://upload.wikimedia.org/wikipedia/commons/9/94/Cloudflare_Logo.png;" parent="1" vertex="1">
          <mxGeometry x="515" y="635" width="20" height="20" as="geometry" />
        </mxCell>
        <mxCell id="3gP7cIQIkid6_7ooMgnK-31" value="" style="image;html=1;image=img/lib/clip_art/computers/Server_128x128.png" parent="1" vertex="1">
          <mxGeometry x="600" y="445" width="120" height="118" as="geometry" />
        </mxCell>
        <mxCell id="3gP7cIQIkid6_7ooMgnK-32" value="" style="shape=image;html=1;verticalAlign=top;verticalLabelPosition=bottom;labelBackgroundColor=#ffffff;imageAspect=0;aspect=fixed;image=https://cdn1.iconfinder.com/data/icons/operating-system-flat-1/30/ubuntu-128.png" parent="1" vertex="1">
          <mxGeometry x="600" y="557" width="63" height="63" as="geometry" />
        </mxCell>
        <mxCell id="3gP7cIQIkid6_7ooMgnK-33" value="" style="shape=image;html=1;verticalAlign=top;verticalLabelPosition=bottom;labelBackgroundColor=#ffffff;imageAspect=0;aspect=fixed;image=https://cdn1.iconfinder.com/data/icons/unicons-line-vol-3/24/docker-128.png" parent="1" vertex="1">
          <mxGeometry x="660" y="560" width="60" height="60" as="geometry" />
        </mxCell>
        <mxCell id="3gP7cIQIkid6_7ooMgnK-34" value="" style="shape=image;verticalLabelPosition=bottom;labelBackgroundColor=default;verticalAlign=top;aspect=fixed;imageAspect=0;image=https://containrrr.dev/watchtower/images/logo-450px.png;" parent="1" vertex="1">
          <mxGeometry x="700" y="560" width="20" height="20" as="geometry" />
        </mxCell>
        <mxCell id="3gP7cIQIkid6_7ooMgnK-35" value="" style="shape=image;verticalLabelPosition=bottom;labelBackgroundColor=default;verticalAlign=top;aspect=fixed;imageAspect=0;image=https://static-00.iconduck.com/assets.00/portainer-icon-732x1024-dlqoqekr.png;" parent="1" vertex="1">
          <mxGeometry x="730" y="560" width="35.74" height="50" as="geometry" />
        </mxCell>
        <mxCell id="3gP7cIQIkid6_7ooMgnK-36" value="&lt;div&gt;Nuc G3&lt;/div&gt;&lt;div&gt;N100&lt;/div&gt;&lt;div&gt;2x 256GB NVME/&lt;/div&gt;&lt;div&gt;SATA&lt;/div&gt;" style="text;html=1;align=center;verticalAlign=middle;whiteSpace=wrap;rounded=0;" parent="1" vertex="1">
          <mxGeometry x="720" y="472" width="60" height="85" as="geometry" />
        </mxCell>
        <mxCell id="3gP7cIQIkid6_7ooMgnK-37" value="192.168.8.11" style="text;html=1;align=center;verticalAlign=middle;whiteSpace=wrap;rounded=0;" parent="1" vertex="1">
          <mxGeometry x="390" y="533" width="60" height="30" as="geometry" />
        </mxCell>
        <mxCell id="3gP7cIQIkid6_7ooMgnK-38" value="&lt;div&gt;192.168.8.10&lt;/div&gt;" style="text;html=1;align=center;verticalAlign=middle;whiteSpace=wrap;rounded=0;" parent="1" vertex="1">
          <mxGeometry x="630" y="533" width="60" height="30" as="geometry" />
        </mxCell>
        <mxCell id="3gP7cIQIkid6_7ooMgnK-39" value="" style="shape=image;verticalLabelPosition=bottom;labelBackgroundColor=default;verticalAlign=top;aspect=fixed;imageAspect=0;image=https://nginxproxymanager.com/icon.png;" parent="1" vertex="1">
          <mxGeometry x="600" y="640" width="90" height="90" as="geometry" />
        </mxCell>
        <mxCell id="3gP7cIQIkid6_7ooMgnK-40" value="" style="shape=image;verticalLabelPosition=bottom;labelBackgroundColor=default;verticalAlign=top;aspect=fixed;imageAspect=0;image=https://registry.npmmirror.com/@lobehub/icons-static-png/latest/files/dark/openwebui.png;" parent="1" vertex="1">
          <mxGeometry x="690" y="640" width="80" height="80" as="geometry" />
        </mxCell>
        <mxCell id="3gP7cIQIkid6_7ooMgnK-43" value="" style="shape=image;verticalLabelPosition=bottom;labelBackgroundColor=default;verticalAlign=top;aspect=fixed;imageAspect=0;image=https://upload.wikimedia.org/wikipedia/commons/thumb/9/95/Matrix_logo.svg/800px-Matrix_logo.svg.png;" parent="1" vertex="1">
          <mxGeometry x="683.0799999999999" y="736.77" width="93.84" height="40" as="geometry" />
        </mxCell>
        <mxCell id="3gP7cIQIkid6_7ooMgnK-44" value="" style="shape=image;verticalLabelPosition=bottom;labelBackgroundColor=default;verticalAlign=top;aspect=fixed;imageAspect=0;image=https://upload.wikimedia.org/wikipedia/commons/thumb/5/52/Lemmy_logo.svg/1200px-Lemmy_logo.svg.png;" parent="1" vertex="1">
          <mxGeometry x="604.39" y="730" width="81.22" height="53.54" as="geometry" />
        </mxCell>
        <mxCell id="3gP7cIQIkid6_7ooMgnK-49" value="" style="shape=image;verticalLabelPosition=bottom;labelBackgroundColor=default;verticalAlign=top;aspect=fixed;imageAspect=0;image=https://upload.wikimedia.org/wikipedia/commons/thumb/e/e3/Jenkins_logo_with_title.svg/1920px-Jenkins_logo_with_title.svg.png;" parent="1" vertex="1">
          <mxGeometry x="612.28" y="783.54" width="155.44" height="50" as="geometry" />
        </mxCell>
        <mxCell id="3gP7cIQIkid6_7ooMgnK-50" value="+ Docker Agent" style="text;html=1;align=center;verticalAlign=middle;whiteSpace=wrap;rounded=0;" parent="1" vertex="1">
          <mxGeometry x="655" y="812.5" width="90" height="30" as="geometry" />
        </mxCell>
        <mxCell id="3gP7cIQIkid6_7ooMgnK-51" value="" style="shape=image;verticalLabelPosition=bottom;labelBackgroundColor=default;verticalAlign=top;aspect=fixed;imageAspect=0;image=https://dashy.to/img/dashy.png;" parent="1" vertex="1">
          <mxGeometry x="600" y="835" width="85" height="85" as="geometry" />
        </mxCell>
        <mxCell id="3gP7cIQIkid6_7ooMgnK-53" value="" style="shape=image;verticalLabelPosition=bottom;labelBackgroundColor=default;verticalAlign=top;aspect=fixed;imageAspect=0;image=https://static-00.iconduck.com/assets.00/navidrome-icon-2048x2048-4rzcut65.png;" parent="1" vertex="1">
          <mxGeometry x="695" y="842.5" width="70" height="70" as="geometry" />
        </mxCell>
        <mxCell id="3gP7cIQIkid6_7ooMgnK-55" value="" style="shape=image;verticalLabelPosition=bottom;labelBackgroundColor=default;verticalAlign=top;aspect=fixed;imageAspect=0;image=https://global.discourse-cdn.com/free1/uploads/vaultwarden/original/1X/26a1c808c7d5849039d47820eef7889b3415e5ec.png;" parent="1" vertex="1">
          <mxGeometry x="600" y="920" width="80" height="80" as="geometry" />
        </mxCell>
        <mxCell id="3gP7cIQIkid6_7ooMgnK-58" value="" style="shape=image;verticalLabelPosition=bottom;labelBackgroundColor=default;verticalAlign=top;aspect=fixed;imageAspect=0;image=https://github.com/borgmatic-collective/borgmatic/raw/main/docs/static/borgmatic.png;" parent="1" vertex="1">
          <mxGeometry x="695" y="912.5" width="80" height="80" as="geometry" />
        </mxCell>
        <mxCell id="3gP7cIQIkid6_7ooMgnK-59" value="" style="shape=image;verticalLabelPosition=bottom;labelBackgroundColor=default;verticalAlign=top;aspect=fixed;imageAspect=0;image=https://static-00.iconduck.com/assets.00/mealie-icon-2048x1951-eraqwyok.png;" parent="1" vertex="1">
          <mxGeometry x="600" y="1000" width="83.99" height="80" as="geometry" />
        </mxCell>
        <mxCell id="3gP7cIQIkid6_7ooMgnK-60" value="" style="shape=image;verticalLabelPosition=bottom;labelBackgroundColor=default;verticalAlign=top;aspect=fixed;imageAspect=0;image=https://static-00.iconduck.com/assets.00/portainer-icon-732x1024-dlqoqekr.png;" parent="1" vertex="1">
          <mxGeometry x="701.41" y="1000" width="57.18" height="80" as="geometry" />
        </mxCell>
        <mxCell id="3gP7cIQIkid6_7ooMgnK-61" value="" style="image;html=1;image=img/lib/clip_art/computers/Server_128x128.png" parent="1" vertex="1">
          <mxGeometry x="827" y="445" width="120" height="118" as="geometry" />
        </mxCell>
        <mxCell id="3gP7cIQIkid6_7ooMgnK-62" value="192.168.8.12" style="text;html=1;align=center;verticalAlign=middle;whiteSpace=wrap;rounded=0;" parent="1" vertex="1">
          <mxGeometry x="857" y="533" width="60" height="30" as="geometry" />
        </mxCell>
        <mxCell id="3gP7cIQIkid6_7ooMgnK-65" value="" style="shape=image;verticalLabelPosition=bottom;labelBackgroundColor=default;verticalAlign=top;aspect=fixed;imageAspect=0;image=https://www.gartner.com/pi/vendorimages/ixsystems_primary-storage-platforms_1745258676486.png;" parent="1" vertex="1">
          <mxGeometry x="830" y="555" width="70" height="70" as="geometry" />
        </mxCell>
        <mxCell id="3gP7cIQIkid6_7ooMgnK-66" value="" style="shape=image;html=1;verticalAlign=top;verticalLabelPosition=bottom;labelBackgroundColor=#ffffff;imageAspect=0;aspect=fixed;image=https://cdn1.iconfinder.com/data/icons/unicons-line-vol-3/24/docker-128.png" parent="1" vertex="1">
          <mxGeometry x="900" y="560" width="60" height="60" as="geometry" />
        </mxCell>
        <mxCell id="3gP7cIQIkid6_7ooMgnK-67" value="" style="shape=image;verticalLabelPosition=bottom;labelBackgroundColor=default;verticalAlign=top;aspect=fixed;imageAspect=0;image=https://static-00.iconduck.com/assets.00/portainer-icon-732x1024-dlqoqekr.png;" parent="1" vertex="1">
          <mxGeometry x="980" y="557" width="35.74" height="50" as="geometry" />
        </mxCell>
        <mxCell id="3gP7cIQIkid6_7ooMgnK-68" value="" style="shape=image;verticalLabelPosition=bottom;labelBackgroundColor=default;verticalAlign=top;aspect=fixed;imageAspect=0;image=https://containrrr.dev/watchtower/images/logo-450px.png;" parent="1" vertex="1">
          <mxGeometry x="940" y="560" width="20" height="20" as="geometry" />
        </mxCell>
        <mxCell id="3gP7cIQIkid6_7ooMgnK-69" value="&lt;div&gt;N150&lt;/div&gt;&lt;div&gt;2x6GB Ironwolf&lt;/div&gt;&lt;div&gt;256GB NVME&lt;/div&gt;&lt;div&gt;1TB NVME&lt;/div&gt;" style="text;html=1;align=center;verticalAlign=middle;whiteSpace=wrap;rounded=0;" parent="1" vertex="1">
          <mxGeometry x="960" y="475" width="90" height="75" as="geometry" />
        </mxCell>
        <mxCell id="3gP7cIQIkid6_7ooMgnK-70" value="" style="shape=image;verticalLabelPosition=bottom;labelBackgroundColor=default;verticalAlign=top;aspect=fixed;imageAspect=0;image=https://upload.wikimedia.org/wikipedia/commons/thumb/6/60/Nextcloud_Logo.svg/2560px-Nextcloud_Logo.svg.png;" parent="1" vertex="1">
          <mxGeometry x="827" y="640" width="106.51" height="75" as="geometry" />
        </mxCell>
        <mxCell id="3gP7cIQIkid6_7ooMgnK-71" value="" style="shape=image;verticalLabelPosition=bottom;labelBackgroundColor=default;verticalAlign=top;aspect=fixed;imageAspect=0;image=https://cdn-avatars.huggingface.co/v1/production/uploads/653c54db7bd6a97439db3207/PyTUoIhpBI6tAVPECRPWq.png;" parent="1" vertex="1">
          <mxGeometry x="960" y="637.5" width="80" height="80" as="geometry" />
        </mxCell>
        <mxCell id="3gP7cIQIkid6_7ooMgnK-78" value="" style="shape=image;verticalLabelPosition=bottom;labelBackgroundColor=default;verticalAlign=top;aspect=fixed;imageAspect=0;image=https://nginxproxymanager.com/icon.png;" parent="1" vertex="1">
          <mxGeometry x="750" y="637.5" width="20" height="20" as="geometry" />
        </mxCell>
        <mxCell id="3gP7cIQIkid6_7ooMgnK-79" value="" style="shape=image;verticalLabelPosition=bottom;labelBackgroundColor=default;verticalAlign=top;aspect=fixed;imageAspect=0;image=https://nginxproxymanager.com/icon.png;" parent="1" vertex="1">
          <mxGeometry x="750" y="720" width="20" height="20" as="geometry" />
        </mxCell>
        <mxCell id="3gP7cIQIkid6_7ooMgnK-80" value="" style="shape=image;verticalLabelPosition=bottom;labelBackgroundColor=default;verticalAlign=top;aspect=fixed;imageAspect=0;image=https://nginxproxymanager.com/icon.png;" parent="1" vertex="1">
          <mxGeometry x="663" y="716.77" width="20" height="20" as="geometry" />
        </mxCell>
        <mxCell id="3gP7cIQIkid6_7ooMgnK-81" value="" style="shape=image;verticalLabelPosition=bottom;labelBackgroundColor=default;verticalAlign=top;aspect=fixed;imageAspect=0;image=https://nginxproxymanager.com/icon.png;" parent="1" vertex="1">
          <mxGeometry x="750" y="783.54" width="20" height="20" as="geometry" />
        </mxCell>
        <mxCell id="3gP7cIQIkid6_7ooMgnK-82" value="" style="shape=image;verticalLabelPosition=bottom;labelBackgroundColor=default;verticalAlign=top;aspect=fixed;imageAspect=0;image=https://nginxproxymanager.com/icon.png;" parent="1" vertex="1">
          <mxGeometry x="665.61" y="842.5" width="20" height="20" as="geometry" />
        </mxCell>
        <mxCell id="3gP7cIQIkid6_7ooMgnK-83" value="" style="shape=image;verticalLabelPosition=bottom;labelBackgroundColor=default;verticalAlign=top;aspect=fixed;imageAspect=0;image=https://nginxproxymanager.com/icon.png;" parent="1" vertex="1">
          <mxGeometry x="750" y="842.5" width="20" height="20" as="geometry" />
        </mxCell>
        <mxCell id="3gP7cIQIkid6_7ooMgnK-84" value="" style="shape=image;verticalLabelPosition=bottom;labelBackgroundColor=default;verticalAlign=top;aspect=fixed;imageAspect=0;image=https://nginxproxymanager.com/icon.png;" parent="1" vertex="1">
          <mxGeometry x="665" y="912.5" width="20" height="20" as="geometry" />
        </mxCell>
        <mxCell id="3gP7cIQIkid6_7ooMgnK-85" value="" style="shape=image;verticalLabelPosition=bottom;labelBackgroundColor=default;verticalAlign=top;aspect=fixed;imageAspect=0;image=https://nginxproxymanager.com/icon.png;" parent="1" vertex="1">
          <mxGeometry x="663.08" y="1000" width="20" height="20" as="geometry" />
        </mxCell>
        <mxCell id="3gP7cIQIkid6_7ooMgnK-87" value="" style="shape=image;verticalLabelPosition=bottom;labelBackgroundColor=default;verticalAlign=top;aspect=fixed;imageAspect=0;image=https://nginxproxymanager.com/icon.png;" parent="1" vertex="1">
          <mxGeometry x="913.51" y="640" width="20" height="20" as="geometry" />
        </mxCell>
        <mxCell id="3gP7cIQIkid6_7ooMgnK-88" value="" style="shape=image;verticalLabelPosition=bottom;labelBackgroundColor=default;verticalAlign=top;aspect=fixed;imageAspect=0;image=https://nginxproxymanager.com/icon.png;" parent="1" vertex="1">
          <mxGeometry x="1020" y="640" width="20" height="20" as="geometry" />
        </mxCell>
        <mxCell id="3gP7cIQIkid6_7ooMgnK-89" value="" style="shape=image;verticalLabelPosition=bottom;labelBackgroundColor=default;verticalAlign=top;aspect=fixed;imageAspect=0;image=https://upload.wikimedia.org/wikipedia/commons/9/94/Cloudflare_Logo.png;" parent="1" vertex="1">
          <mxGeometry x="730" y="637.5" width="20" height="20" as="geometry" />
        </mxCell>
        <mxCell id="3gP7cIQIkid6_7ooMgnK-90" value="" style="shape=image;verticalLabelPosition=bottom;labelBackgroundColor=default;verticalAlign=top;aspect=fixed;imageAspect=0;image=https://upload.wikimedia.org/wikipedia/commons/9/94/Cloudflare_Logo.png;" parent="1" vertex="1">
          <mxGeometry x="730" y="720" width="20" height="20" as="geometry" />
        </mxCell>
        <mxCell id="3gP7cIQIkid6_7ooMgnK-91" value="" style="shape=image;verticalLabelPosition=bottom;labelBackgroundColor=default;verticalAlign=top;aspect=fixed;imageAspect=0;image=https://upload.wikimedia.org/wikipedia/commons/9/94/Cloudflare_Logo.png;" parent="1" vertex="1">
          <mxGeometry x="643.08" y="717.5" width="20" height="20" as="geometry" />
        </mxCell>
        <mxCell id="3gP7cIQIkid6_7ooMgnK-92" value="" style="shape=image;verticalLabelPosition=bottom;labelBackgroundColor=default;verticalAlign=top;aspect=fixed;imageAspect=0;image=https://upload.wikimedia.org/wikipedia/commons/9/94/Cloudflare_Logo.png;" parent="1" vertex="1">
          <mxGeometry x="730" y="783.54" width="20" height="20" as="geometry" />
        </mxCell>
        <mxCell id="3gP7cIQIkid6_7ooMgnK-93" value="" style="shape=image;verticalLabelPosition=bottom;labelBackgroundColor=default;verticalAlign=top;aspect=fixed;imageAspect=0;image=https://upload.wikimedia.org/wikipedia/commons/9/94/Cloudflare_Logo.png;" parent="1" vertex="1">
          <mxGeometry x="730" y="842.5" width="20" height="20" as="geometry" />
        </mxCell>
        <mxCell id="3gP7cIQIkid6_7ooMgnK-94" value="" style="shape=image;verticalLabelPosition=bottom;labelBackgroundColor=default;verticalAlign=top;aspect=fixed;imageAspect=0;image=https://upload.wikimedia.org/wikipedia/commons/9/94/Cloudflare_Logo.png;" parent="1" vertex="1">
          <mxGeometry x="645.61" y="842.5" width="20" height="20" as="geometry" />
        </mxCell>
        <mxCell id="3gP7cIQIkid6_7ooMgnK-95" value="" style="shape=image;verticalLabelPosition=bottom;labelBackgroundColor=default;verticalAlign=top;aspect=fixed;imageAspect=0;image=https://upload.wikimedia.org/wikipedia/commons/9/94/Cloudflare_Logo.png;" parent="1" vertex="1">
          <mxGeometry x="643.08" y="912.5" width="20" height="20" as="geometry" />
        </mxCell>
        <mxCell id="3gP7cIQIkid6_7ooMgnK-97" value="" style="shape=image;verticalLabelPosition=bottom;labelBackgroundColor=default;verticalAlign=top;aspect=fixed;imageAspect=0;image=https://upload.wikimedia.org/wikipedia/commons/9/94/Cloudflare_Logo.png;" parent="1" vertex="1">
          <mxGeometry x="640" y="1000" width="20" height="20" as="geometry" />
        </mxCell>
        <mxCell id="3gP7cIQIkid6_7ooMgnK-98" value="" style="shape=image;verticalLabelPosition=bottom;labelBackgroundColor=default;verticalAlign=top;aspect=fixed;imageAspect=0;image=https://upload.wikimedia.org/wikipedia/commons/9/94/Cloudflare_Logo.png;" parent="1" vertex="1">
          <mxGeometry x="893.51" y="640" width="20" height="20" as="geometry" />
        </mxCell>
        <mxCell id="3gP7cIQIkid6_7ooMgnK-99" value="" style="shape=image;verticalLabelPosition=bottom;labelBackgroundColor=default;verticalAlign=top;aspect=fixed;imageAspect=0;image=https://upload.wikimedia.org/wikipedia/commons/9/94/Cloudflare_Logo.png;" parent="1" vertex="1">
          <mxGeometry x="1000" y="640" width="20" height="20" as="geometry" />
        </mxCell>
        <mxCell id="3gP7cIQIkid6_7ooMgnK-103" value="" style="endArrow=none;html=1;rounded=0;entryX=0.5;entryY=0;entryDx=0;entryDy=0;" parent="1" target="3gP7cIQIkid6_7ooMgnK-75" edge="1">
          <mxGeometry width="50" height="50" relative="1" as="geometry">
            <mxPoint x="310" y="400" as="sourcePoint" />
            <mxPoint x="400" y="570" as="targetPoint" />
            <Array as="points">
              <mxPoint x="460" y="400" />
            </Array>
          </mxGeometry>
        </mxCell>
        <mxCell id="3gP7cIQIkid6_7ooMgnK-104" value="" style="endArrow=none;html=1;rounded=0;exitX=0.995;exitY=0.2;exitDx=0;exitDy=0;exitPerimeter=0;entryX=0.5;entryY=0;entryDx=0;entryDy=0;strokeColor=light-dark(#000000,#00FF26);" parent="1" source="3gP7cIQIkid6_7ooMgnK-5" target="3gP7cIQIkid6_7ooMgnK-76" edge="1">
          <mxGeometry width="50" height="50" relative="1" as="geometry">
            <mxPoint x="350" y="620" as="sourcePoint" />
            <mxPoint x="400" y="570" as="targetPoint" />
            <Array as="points">
              <mxPoint x="690" y="378" />
            </Array>
          </mxGeometry>
        </mxCell>
        <mxCell id="3gP7cIQIkid6_7ooMgnK-105" value="" style="endArrow=none;html=1;rounded=0;exitX=0.998;exitY=0.165;exitDx=0;exitDy=0;exitPerimeter=0;entryX=0.5;entryY=0;entryDx=0;entryDy=0;strokeColor=light-dark(#000000,#00FF80);" parent="1" source="3gP7cIQIkid6_7ooMgnK-5" target="3gP7cIQIkid6_7ooMgnK-77" edge="1">
          <mxGeometry width="50" height="50" relative="1" as="geometry">
            <mxPoint x="350" y="620" as="sourcePoint" />
            <mxPoint x="400" y="570" as="targetPoint" />
            <Array as="points">
              <mxPoint x="940" y="360" />
            </Array>
          </mxGeometry>
        </mxCell>
        <mxCell id="3gP7cIQIkid6_7ooMgnK-110" value="" style="endArrow=none;html=1;rounded=0;" parent="1" edge="1">
          <mxGeometry width="50" height="50" relative="1" as="geometry">
            <mxPoint x="-230" y="520" as="sourcePoint" />
            <mxPoint x="-200" y="520" as="targetPoint" />
          </mxGeometry>
        </mxCell>
        <mxCell id="3gP7cIQIkid6_7ooMgnK-111" value="" style="endArrow=none;html=1;rounded=0;strokeColor=light-dark(#000000,#00FF80);" parent="1" edge="1">
          <mxGeometry width="50" height="50" relative="1" as="geometry">
            <mxPoint x="-230" y="540" as="sourcePoint" />
            <mxPoint x="-200" y="540" as="targetPoint" />
          </mxGeometry>
        </mxCell>
        <mxCell id="3gP7cIQIkid6_7ooMgnK-113" value="1G" style="text;html=1;align=center;verticalAlign=middle;whiteSpace=wrap;rounded=0;" parent="1" vertex="1">
          <mxGeometry x="-210" y="505" width="60" height="30" as="geometry" />
        </mxCell>
        <mxCell id="3gP7cIQIkid6_7ooMgnK-116" value="&lt;div&gt;2.5G&lt;/div&gt;" style="text;html=1;align=center;verticalAlign=middle;whiteSpace=wrap;rounded=0;" parent="1" vertex="1">
          <mxGeometry x="-210" y="527" width="60" height="30" as="geometry" />
        </mxCell>
        <mxCell id="3gP7cIQIkid6_7ooMgnK-117" value="Containerized" style="rounded=1;whiteSpace=wrap;html=1;fillColor=#dae8fc;gradientColor=#7ea6e0;strokeColor=#6c8ebf;" parent="1" vertex="1">
          <mxGeometry x="-160" y="510" width="110" height="45" as="geometry" />
        </mxCell>
      </root>
    </mxGraphModel>
  </diagram>
</mxfile>
